# xmcd
#
# Track frame offsets: 
#        150
#        13596
#        29428
#        46994
#        60479
#        86952
#        110949
#        130822
#        147082
#        172405
#        191940
#        211236
#        232036
#        250055
#        268144
#
# Disc length: 3797 seconds
#
# Revision: 1
# Processed by: cddbd v1.5.2PL0 Copyright (c) Steve Scherf et al.
# Submitted via: ExactAudioCopyFreeDBPlugin 1.0
#
DISCID=e70ed30f
DTITLE=Eric Roberson - Mister Nice Guy
DYEAR=2011
DGENRE=R&B
TTITLE0=Mr. Nice Guy
TTITLE1=Strangers
TTITLE2=Summertime Anthem (feat. Chubb Rock)
TTITLE3=Come with Me (feat. The Ones)
TTITLE4=Picture Perfect (feat. Phonte)
TTITLE5=Fall
TTITLE6=Shake Her Hand
TTITLE7=The Magician
TTITLE8=Love's Withdrawal (feat. Omari Hardwick)
TTITLE9=How Would I Feel (feat. Jean Baylor)
TTITLE10=Talking Reckless
TTITLE11=At the Same Time
TTITLE12=Male Ego (feat. Hezekiah)
TTITLE13=Try Love
TTITLE14=All for Me
EXTD=
EXTT0=
EXTT1=
EXTT2=
EXTT3=
EXTT4=
EXTT5=
EXTT6=
EXTT7=
EXTT8=
EXTT9=
EXTT10=
EXTT11=
EXTT12=
EXTT13=
EXTT14=
PLAYORDER=
